<svg width="426" height="255" fill="none" xmlns="http://www.w3.org/2000/svg"><path d="M190.778 1.001H1v250.892h189.778V1.001z" fill="#FD6EFF" stroke="#101737" stroke-linejoin="bevel"/><path d="M182.943 10.167H9.041v234.232h173.902V10.167z" fill="#101737" stroke="#101737" stroke-linejoin="bevel"/><path d="M182.943 244.399L9.041 166.323V10.167h173.902v234.232z" fill="#fff" stroke="#101737" stroke-linejoin="bevel"/><path d="M163.905 205.468V68.005L68.33 25.87v137.463l95.575 42.134z" fill="#73CAFF" stroke="#101737" stroke-linejoin="bevel"/><path d="M148.959 90.724l-.04.044h-.061a14.82 14.82 0 0 0-.605-.117c-5.595-.942-10.319 2.225-11.23 7.53v.1l-.158-.03h-.105c-3.462-.581-6.323 1.584-6.573 4.942l33.595 5.613V88.182a15.662 15.662 0 0 0-3.58-1.058c-4.434-.747-8.536.564-11.243 3.6zM109.97 118.437l-.04.044h-.061l-.605-.118c-5.591-.941-10.319 2.226-11.23 7.527v.1l-.167-.03h-.092c-3.461-.586-6.323 1.579-6.572 4.941l42.288 7.119a12.276 12.276 0 0 0 1.919-6.728c0-7.74-6.362-15.106-14.179-16.421-4.452-.781-8.549.534-11.261 3.566zM156.026 149.777c-4.438-.75-8.535.564-11.248 3.596l-.039.044h-.061l-.605-.117c-5.596-.942-10.319 2.225-11.231 7.527v.099l-.17-.06h-.101c-3.462-.586-6.319 1.579-6.573 4.941l37.784 6.36v-18.789a16.682 16.682 0 0 0-7.756-3.601zM111.048 46.491l-.035.044h-.066a13.755 13.755 0 0 0-.605-.118c-5.591-.941-10.314 2.226-11.23 7.527v.104l-.154-.034h-.105c-3.461-.582-6.323 1.579-6.572 4.941l42.288 7.12a12.265 12.265 0 0 0 1.919-6.725 14.827 14.827 0 0 0-.438-3.47l-23.824-10.504c-.419.343-.813.716-1.178 1.115z" fill="#fff" stroke="#101737" stroke-linejoin="bevel"/><path d="M163.782 196.088L82.579 159.36V32.28l29.384 12.953.198-.16-43.818-19.31-.153-.07v137.81l.131-.039 95.522 42.117.154.065" fill="#101737"/><path d="M111.964 45.234l.136.06.202-.16-.141-.062-.197.162z" fill="#101737"/><path d="M112.433 45.19l-.132-.057-.202.161.132.057.202-.161z" fill="#101737"/><path d="M1 1.001l8.041 9.167M190.778 1l-7.835 9.167M182.943 244.399l7.835 7.493M9.04 244.399L1 251.892" stroke="#101737" stroke-linejoin="bevel"/><path d="M223.076 42.513a60.022 60.022 0 0 1 9.258-32.103 61.097 61.097 0 0 0-19.429 19.103 60.394 60.394 0 0 0-9.108 25.566 60.198 60.198 0 0 0 3.025 26.945 60.7 60.7 0 0 0 14.556 22.962 61.495 61.495 0 0 0 23.193 14.412 61.969 61.969 0 0 0 27.214 2.995 61.784 61.784 0 0 0 25.823-9.018 61.076 61.076 0 0 0 19.294-19.237 61.836 61.836 0 0 1-30.916 9.148 61.887 61.887 0 0 1-31.331-7.636 61.12 61.12 0 0 1-23.093-22.312 60.324 60.324 0 0 1-8.477-30.825h-.009z" fill="#101737" stroke="#101737" stroke-linejoin="bevel"/><path d="M326.152 62.022c0 2.43-.146 4.858-.438 7.271a59.945 59.945 0 0 1-8.816 24.837 61.897 61.897 0 0 1-39.443 8.771c-13.771-1.568-26.601-7.703-36.402-17.407-9.802-9.704-15.999-22.407-17.582-36.041A60.303 60.303 0 0 1 232.33 10.4a61.843 61.843 0 0 1 30.916-9.148 61.885 61.885 0 0 1 31.331 7.637 61.115 61.115 0 0 1 23.094 22.312 60.334 60.334 0 0 1 8.477 30.825l.004-.005z" fill="#73CAFF" stroke="#101737" stroke-linejoin="bevel"/><path d="M422.695 111.579c.178.158.344.328.5.507 4.438 5.124-3.348 12.625-3.348 17.969 0 8.677 2.804 8.677 2.804 17.353 0 8.677-2.804 8.677-2.804 17.354 0 8.676 2.804 8.676 2.804 17.353 0 8.676-2.804 8.676-2.804 17.353 0 8.676 2.804 8.676 2.804 17.353 0 8.677-2.804 8.677-2.804 17.353 0 5.206 5.179 9.813 4.299 15.089-1.543 9.275-10.411.867-15.337.867-6.217 0-6.217 2.777-12.439 2.777s-6.218-2.777-12.44-2.777c-6.222 0-6.218 2.777-12.44 2.777-6.222 0-6.222-2.777-12.44-2.777-6.217 0-6.222 2.777-12.444 2.777s-6.218-2.772-12.431-2.777c-3.86 0-9.167 4.976-13.058 2.811-6.572-3.665 2.007-13.96 2.007-18.767 0-8.676-2.804-8.676-2.804-17.353 0-8.677 2.804-8.677 2.804-17.353 0-8.677-2.804-8.677-2.804-17.353 0-8.677 2.804-8.677 2.804-17.353 0-8.677-2.804-8.677-2.804-17.354 0-8.676 2.8-8.676 2.804-17.353 0-5.006-8.995-15.309-1.818-18.993 4.079-2.091 8.724 3.015 12.856 3.015 6.218 0 6.218-2.772 12.44-2.772 6.222 0 6.217 2.772 12.439 2.772 6.223 0 6.218-2.772 12.44-2.772 6.222 0 6.222 2.772 12.44 2.772 6.218 0 6.222-2.772 12.444-2.772s6.779 4.286 12.786 2.733c3.817-.971 9.793-5.765 13.544-2.459z" stroke="#101737" stroke-linejoin="bevel"/><path d="M413.888 147.417a16.042 16.042 0 0 1-.986 6.026 36.142 36.142 0 0 0 0 22.637 18.901 18.901 0 0 1 0 12.056 36.116 36.116 0 0 0 0 22.633 18.901 18.901 0 0 1 0 12.056 32.454 32.454 0 0 0-1.818 11.306 19.93 19.93 0 0 0 1.752 7.865 15.47 15.47 0 0 0-4.031-.568c-3.4-.049-6.763.694-9.819 2.169-1.179.529-1.394.625-2.629.625-1.236 0-1.438-.096-2.629-.625a23.476 23.476 0 0 0-19.639 0c-1.184.529-1.394.625-2.63.625-1.235 0-1.441-.096-2.629-.625a23.478 23.478 0 0 0-19.643 0c-1.179.529-1.393.625-2.629.625s-1.437-.096-2.629-.625a21.898 21.898 0 0 0-9.806-2.169c-1.444.01-2.878.225-4.259.637 1.056-2.537 1.967-5.158 1.967-7.917a32.449 32.449 0 0 0-1.819-11.314 18.915 18.915 0 0 1 0-12.056 36.116 36.116 0 0 0 0-22.633 18.915 18.915 0 0 1 0-12.056 36.128 36.128 0 0 0 0-22.637 18.915 18.915 0 0 1 0-12.056 32.416 32.416 0 0 0 1.876-11.332c0-2.785-.907-5.401-1.976-7.926a15.4 15.4 0 0 0 4.25.625c3.4.05 6.764-.693 9.82-2.169 1.178-.525 1.393-.621 2.629-.621 1.235 0 1.437.096 2.629.621a23.468 23.468 0 0 0 9.819 2.151c3.393 0 6.744-.734 9.82-2.151 1.183-.525 1.393-.621 2.629-.621 1.235 0 1.441.096 2.629.621a23.477 23.477 0 0 0 9.821 2.151c3.394 0 6.746-.734 9.822-2.151 1.179-.525 1.394-.621 2.629-.621.592 0 .662.022 1.854.664 2.283 1.223 6.533 3.497 13.145 1.787.6-.156 1.179-.342 1.753-.551-1.091 2.456-2.029 5.154-2.029 8.152a32.526 32.526 0 0 0 1.818 11.319 16.041 16.041 0 0 1 .938 6.073z" fill="#F6FFE5" stroke="#101737" stroke-linejoin="bevel"/><path d="M411.241 63.935l-7.935-12.906h-54.439v18.19l7.935 12.907v-18.19h54.439z" fill="#ED2000" stroke="#101737" stroke-linejoin="bevel"/><path d="M411.241 63.935h-54.439v18.191h54.439v-18.19z" fill="#ED2000" stroke="#101737" stroke-linejoin="bevel"/><path d="M348.867 51.03l7.935 12.905M346.689 194.917v21.882" stroke="#101737" stroke-linejoin="bevel"/><path d="M346.689 194.917v10.941l16.064-5.47-16.064-5.471z" fill="#ED2000" stroke="#101737" stroke-linejoin="bevel"/><path d="M392.812 135.53c-7.335.239-13.807 4.985-16.782 11.536-6.06 13.37 3.338 30.368 8.89 42.567 4.741 10.412 14.495 26.598 4.233 36.775-8.352 8.282-25.221 7.05-32.447-2.069M395.524 130.823l8.338 7.284M403.372 130.337l-7.357 8.256" stroke="#101737" stroke-linejoin="bevel"/><path d="M284.473 247.198h-9.395V77.228c0-1.042.208-2.074.611-3.036a7.916 7.916 0 0 1 1.738-2.573 8.054 8.054 0 0 1 5.666-2.326h25.037l-7.966 9.293h-11.353a4.366 4.366 0 0 0-3.068 1.26 4.279 4.279 0 0 0-1.27 3.04v164.312z" fill="#FD6EFF" stroke="#101737" stroke-linejoin="bevel"/><path d="M283.535 90.872h22.509v7.622h-22.509a3.87 3.87 0 0 1-2.723-1.117 3.796 3.796 0 0 1-1.128-2.696 3.794 3.794 0 0 1 1.129-2.694 3.874 3.874 0 0 1 2.722-1.115zM283.535 114.26h22.509v7.622h-22.509a3.857 3.857 0 0 1-2.723-1.117 3.802 3.802 0 0 1-1.128-2.696 3.794 3.794 0 0 1 1.129-2.694 3.875 3.875 0 0 1 2.722-1.115zM283.535 137.647h22.509v7.623h-22.509a3.881 3.881 0 0 1-2.723-1.117 3.802 3.802 0 0 1-1.128-2.697 3.793 3.793 0 0 1 1.129-2.693 3.871 3.871 0 0 1 2.722-1.116zM283.535 161.035h22.509v7.64h-22.509a3.871 3.871 0 0 1-2.723-1.117 3.791 3.791 0 0 1-1.128-2.697 3.769 3.769 0 0 1 .289-1.463 3.82 3.82 0 0 1 2.085-2.072c.468-.192.97-.291 1.477-.291zM283.535 184.423h22.509v7.622h-22.509a3.871 3.871 0 0 1-2.723-1.117 3.795 3.795 0 0 1-1.128-2.696c0-1.012.406-1.982 1.128-2.697a3.871 3.871 0 0 1 2.723-1.117v.005zM283.535 207.81h22.509v7.623h-22.509a3.871 3.871 0 0 1-2.723-1.117 3.795 3.795 0 0 1-1.128-2.697c0-1.011.406-1.981 1.128-2.696a3.871 3.871 0 0 1 2.723-1.117v.004zM283.535 231.198h22.509v7.622h-22.509a3.867 3.867 0 0 1-2.723-1.117 3.795 3.795 0 0 1-1.128-2.696c0-1.011.406-1.981 1.128-2.696a3.867 3.867 0 0 1 2.723-1.117v.004z" fill="#FD6EFF" stroke="#101737" stroke-linejoin="bevel"/><path d="M325.714 69.293a59.387 59.387 0 0 1-1.705 8.711l-.587.59h-9.569a4.364 4.364 0 0 0-3.069 1.258 4.274 4.274 0 0 0-1.274 3.037v164.309h-9.385V77.224c0-1.042.207-2.074.61-3.036a7.916 7.916 0 0 1 1.737-2.574 8.017 8.017 0 0 1 2.6-1.718 8.08 8.08 0 0 1 3.067-.603h17.575z" fill="#FD6EFF" stroke="#101737" stroke-linejoin="bevel"/><path d="M282.076 251.735h-85.72v-71.369h10.569l52.844 30.589 22.307 40.78z" stroke="#101737" stroke-linejoin="bevel"/><path d="M251.54 180.366h-44.615v10.195h44.615v-10.195z" fill="#101737" stroke="#101737" stroke-linejoin="bevel"/><path d="M262.109 190.566h-44.615v10.195h44.615v-10.195z" fill="#FFF6FF" stroke="#101737" stroke-linejoin="bevel"/><path d="M272.677 200.76h-44.615v10.195h44.615V200.76z" fill="#101737" stroke="#101737" stroke-linejoin="bevel"/><path d="M283.246 210.956h-44.615v10.195h44.615v-10.195z" fill="#FFF6FF" stroke="#101737" stroke-linejoin="bevel"/><path d="M293.815 221.15H249.2v10.195h44.615V221.15z" fill="#101737" stroke="#101737" stroke-linejoin="bevel"/><path d="M304.384 231.345h-44.615v10.195h44.615v-10.195z" fill="#FFF6FF" stroke="#101737" stroke-linejoin="bevel"/><path d="M314.948 241.541h-44.615v10.195h44.615v-10.195z" fill="#101737" stroke="#101737" stroke-linejoin="bevel"/></svg>